HIERARCHY
ROOT Hips
{
  OFFSET 0 0 0
  CHANNELS 6 Xposition Yposition Zposition Zrotation Xrotation Yrotation
  JOINT Spine
  {
    OFFSET 0.00000000 0.00000000 0.00000000
    CHANNELS 3 Zrotation Xrotation Yrotation
    JOINT Spine1
    {
      OFFSET 0.19000000 0.00000000 0.00000000
      CHANNELS 3 Zrotation Xrotation Yrotation
      JOINT Neck
      {
        OFFSET 0.22500000 0.00600000 0.00000000
        CHANNELS 3 Zrotation Xrotation Yrotation
        JOINT Head
        {
          OFFSET 0.14000000 0.00030878 0.00000000
          CHANNELS 3 Zrotation Xrotation Yrotation
          End Site
          {
            OFFSET 0.17000000 0.00000000 0.00000000
          }
        }
      }
      JOINT LeftShoulder
      {
        OFFSET 0.19800000 0.03700000 0.04300000
        CHANNELS 3 Zrotation Xrotation Yrotation
        JOINT LeftArm
        {
          OFFSET 0.08000000 0.00000000 0.00000000
          CHANNELS 3 Zrotation Xrotation Yrotation
          JOINT LeftForeArm
          {
            OFFSET 0.15200000 0.00000000 0.00000000
            CHANNELS 3 Zrotation Xrotation Yrotation
            JOINT LeftHand
            {
              OFFSET 0.17800000 0.00000000 0.00000000
              CHANNELS 3 Zrotation Xrotation Yrotation
              End Site
              {
                OFFSET 0.07200000 0.00000000 0.00000000
              }
            }
          }
        }
      }
      JOINT RightShoulder
      {
        OFFSET 0.19800000 0.03700000 -0.04300000
        CHANNELS 3 Zrotation Xrotation Yrotation
        JOINT RightArm
        {
          OFFSET 0.08000000 0.00000000 0.00151654
          CHANNELS 3 Zrotation Xrotation Yrotation
          JOINT RightForeArm
          {
            OFFSET 0.15200000 0.00000000 0.00000000
            CHANNELS 3 Zrotation Xrotation Yrotation
            JOINT RightHand
            {
              OFFSET 0.17800000 0.00000000 0.00000000
              CHANNELS 3 Zrotation Xrotation Yrotation
              End Site
              {
                OFFSET 0.07200000 0.00000000 0.00000000
              }
            }
          }
        }
      }
    }
  }
  JOINT LeftUpLeg
  {
    OFFSET 0.05984250 -0.07666000 0.04788790
    CHANNELS 3 Zrotation Xrotation Yrotation
    JOINT LeftLeg
    {
      OFFSET 0.16000000 0.00000000 0.00000000
      CHANNELS 3 Zrotation Xrotation Yrotation
      JOINT LeftFoot
      {
        OFFSET 0.18000000 0.00000000 0.00000000
        CHANNELS 3 Zrotation Xrotation Yrotation
        End Site
        {
          OFFSET 0.00000000 -0.10800000 0.00000000
        }
      }
    }
  }
  JOINT RightUpLeg
  {
    OFFSET 0.05984250 -0.07665980 -0.04788790
    CHANNELS 3 Zrotation Xrotation Yrotation
    JOINT RightLeg
    {
      OFFSET 0.16000000 0.00000000 0.00000000
      CHANNELS 3 Zrotation Xrotation Yrotation
      JOINT RightFoot
      {
        OFFSET 0.18000000 0.00000000 0.00000000
        CHANNELS 3 Zrotation Xrotation Yrotation
        End Site
        {
          OFFSET 0.00000000 -0.10800000 0.00000000
        }
      }
    }
  }
  JOINT Tail
  {
    OFFSET 0.06836960 -0.00722574 0.00000000
    CHANNELS 3 Zrotation Xrotation Yrotation
    JOINT Tail1
    {
      OFFSET 0.12000000 0.00000000 0.00000000
      CHANNELS 3 Zrotation Xrotation Yrotation
      End Site
      {
        OFFSET 0.12000000 0.00000000 0.00000000
      }
    }
  }
}
MOTION
Frames:	10
Frame Time:	0.0166667
0.0000000 0.4595880 0.0000000 -8.09200 10.4554 1.47796 -168.406 -0.969573 -26.1499 -4.14213 -0.41675 20.956 -10.4026 -2.40754 0.000931314 -114.825 70.424 122.024 -112.838 -44.4132 -130.824 127.144 -9.8719 -123.789 -60.6928 4.83239 2.14722 -9.09125 2.12498 -14.5692 80.2581 -19.7189 33.4357 56.5233 -47.0206 -31.5495 -53.3458 -24.6621 3.42795 -15.5669 0.843843 0.440235 -132.863 1.04522 -26.1554 71.7076 15.6645 13.5916 37.7944 -3.88252 -7.12175 -95.5261 -6.58105 -6.75348 72.8212 -8.44065 0.566722 72.7773 1.68609 -1.92815 -43.9058 43.3018 -0.903836 2.76715 -56.6411 -0.0195683 
-0.0182685 0.4616120 0.0052930 -6.30781 10.5029 2.76285 -169.175 -0.635439 -25.3079 -4.48463 -0.615903 21.5348 -11.5736 -2.45145 0.024236 -114.445 70.3022 121.806 -112.93 -44.2892 -131.213 126.824 -13.8831 -124.399 -63.291 8.72294 2.70753 -11.7278 1.89653 -13.7046 80.0915 -20.0985 34.1887 55.5838 -49.2242 -31.4104 -51.3563 -23.4002 3.23472 -14.3067 0.663752 1.02142 -132.272 0.914939 -26.3735 71.2279 17.3635 14.314 37.3413 -4.26618 -7.73287 -98.8806 -5.30439 -6.59531 74.1727 -6.79008 -0.0539362 72.6136 1.4996 -2.01903 -47.8446 46.661 -0.756183 2.27304 -60.9965 -0.288046 
-0.0372825 0.4637460 0.0104817 -4.28453 10.4152 4.08214 -169.725 -0.40798 -24.3864 -5.63241 -1.01939 22.0165 -12.1123 -2.71305 0.0698473 -113.989 69.9263 121.163 -112.977 -43.8152 -132.031 124.628 -17.3263 -123.591 -66.2342 9.31311 2.42379 -12.4447 2.74936 -16.9502 79.8217 -20.6126 34.9163 55.2791 -52.2145 -30.3659 -49.8936 -20.7943 2.43026 -11.745 0.669285 0.849906 -131.995 0.68799 -26.2493 70.6525 18.626 15.0451 37.8286 -4.6381 -8.2848 -102.974 -4.00821 -6.26152 76.0397 -5.36858 -0.704327 69.8753 1.32564 -1.94887 -51.9246 50.1166 -0.439598 0.997349 -65.227 -1.29163 
-0.0567440 0.4652020 0.0157368 -2.18814 10.2823 5.46036 -170.574 -0.0375871 -23.628 -6.7342 -1.41649 22.9311 -12.2372 -2.8965 -0.208036 -113.394 69.6818 120.644 -113.159 -42.9155 -133.835 122.979 -20.6821 -123.43 -68.6908 11.474 2.19567 -14.164 2.96073 -17.592 79.4811 -21.3287 36.0379 55.7063 -54.3002 -29.4129 -48.6493 -19.1125 1.68362 -9.85321 1.09443 -0.950948 -131.765 0.428192 -25.818 70.1689 19.4082 15.6106 38.3219 -4.94611 -8.74866 -107.954 -2.92223 -6.09439 78.8001 -6.13683 -1.41732 65.365 1.3029 -1.65526 -55.9821 53.5192 0.0748473 -1.41133 -69.2022 -3.44193 
-0.0757708 0.4661820 0.0208631 -0.58328 10.0331 7.07416 -170.836 0.189004 -22.4915 -8.13928 -1.93804 23.6557 -12.083 -2.83835 -0.707674 -113.008 69.4956 120.497 -112.961 -41.7494 -135.262 120.663 -23.2636 -123.037 -70.5763 12.6791 2.26317 -16.0118 3.36284 -18.5759 78.8542 -22.4414 37.1329 59.8834 -52.0697 -29.5094 -48.6308 -16.5665 2.54668 -5.84333 1.79731 -6.39063 -131.112 0.243553 -25.2497 69.9196 20.1784 15.8984 38.452 -5.23277 -9.20604 -113.197 -2.0933 -6.3565 82.2268 -7.7588 -2.04382 59.9551 1.30489 -1.27111 -59.2994 56.6919 0.801133 -5.11543 -72.7043 -6.83575 
-0.0943781 0.4664930 0.0257501 0.78194 9.73735 8.83935 -171.259 0.547719 -20.4442 -9.1968 -2.12691 23.1804 -11.8762 -2.86642 -1.13305 -112.6 69.0258 120.254 -112.894 -40.6761 -136.907 118.549 -25.7781 -123.027 -71.962 13.4913 2.21089 -17.5055 3.63892 -19.0659 78.4741 -23.3695 38.6125 66.713 -45.9371 -29.5131 -53.7879 -7.39836 1.69326 4.81161 0.733385 -12.3606 -130.697 0.0790115 -24.7811 70.0317 21.1249 16.2248 39.5909 -5.60729 -9.71159 -118.393 -1.59402 -6.99855 85.2626 -7.71946 -2.31491 56.8047 1.10931 -1.21282 -62.0513 59.6471 1.53979 -10.8304 -75.5968 -12.1885 
-0.1118983 0.4669530 0.0305486 1.42677 9.33283 10.6845 -171.24 0.831933 -18.2275 -9.9778 -2.24315 22.6105 -11.4774 -2.94472 -1.63342 -112.239 68.5887 119.794 -112.599 -39.6197 -138.05 117.411 -28.3745 -123.545 -72.4233 13.999 2.10113 -18.7834 4.08505 -20.0172 78.1164 -24.1454 39.569 70.7231 -42.7937 -28.8661 -62.9537 3.07771 -0.164115 16.9057 -1.75983 -13.705 -129.301 -0.195288 -24.0788 69.9188 22.2721 16.0016 40.1062 -5.8651 -10.0611 -123.1 -1.14477 -7.47313 87.849 -6.9068 -2.44133 53.8652 0.815505 -1.2893 -63.91 62.2511 2.42921 -18.5954 -78.0138 -19.492 
-0.1283586 0.4672660 0.0353209 1.53571 8.93140 12.4419 -171.213 1.06439 -15.7806 -10.1322 -2.1905 21.5953 -10.912 -2.98845 -1.85552 -112.428 68.2809 119.182 -112.128 -38.6794 -138.605 116.999 -31.0039 -124.467 -72.3452 14.2172 1.97647 -19.6401 4.38011 -20.5521 77.7743 -24.8242 40.2224 68.6738 -42.166 -30.4114 -68.1016 7.39256 -0.232115 26.8578 -4.12952 -18.3616 -127.721 -0.326109 -23.4384 70.4282 23.1061 15.414 40.5401 -6.02758 -10.2936 -127.368 -0.511506 -7.44454 89.5852 -6.59058 -2.72334 50.2521 0.507401 -1.33589 -65.3802 64.6378 3.50788 -28.3794 -80.1746 -28.9199 
-0.1438580 0.4675760 0.0398704 1.17975 8.56561 14.0577 -171.239 1.37583 -13.5722 -9.66773 -1.95764 20.789 -10.3564 -2.96687 -2.13017 -112.585 68.1959 118.756 -111.687 -37.7248 -139.283 116.795 -32.9515 -125.459 -71.3734 15.7593 1.33425 -20.8841 4.34296 -19.9922 77.1159 -25.8424 40.5296 65.92 -42.223 -30.9342 -74.2859 10.1453 -0.490373 36.6769 -7.42413 -24.3423 -125.31 -0.653101 -22.6882 70.5449 23.6851 14.4997 40.5175 -6.04464 -10.3445 -131.388 0.360108 -6.93134 90.4472 -6.60586 -3.10626 48.8847 0.339876 -1.40383 -66.1631 66.5798 4.50355 -41.8417 -81.8956 -41.9218 
-0.1583923 0.4682340 0.0442899 0.39019 8.05526 15.6034 -170.861 1.69834 -11.195 -9.17467 -1.58275 19.5589 -9.69691 -2.92974 -2.25514 -112.888 68.2344 118.395 -111.388 -36.7702 -140.356 116.365 -33.8208 -126.184 -70.2866 15.237 1.09459 -21.4088 4.53736 -20.1093 76.305 -27.2355 41.2638 62.8494 -40.3919 -31.6436 -79.1996 5.9456 -2.86869 34.6873 -8.44786 -36.1654 -122.677 -0.977736 -22.1844 70.9293 24.1993 13.6882 40.673 -6.0991 -10.4427 -134.93 1.70389 -5.72091 89.839 -5.82991 -3.61081 48.9553 0.227869 -1.52996 -67.0468 68.4315 6.0887 -63.1964 -83.2297 -62.7596 
